<svg width="62" height="62" fill="none" xmlns="http://www.w3.org/2000/svg"><circle cx="31" cy="31" r="30" stroke="#fff" stroke-opacity=".2"/><circle cx="31" cy="31" fill="#fff" r="20"/><path d="M30.336 35.25l-5.313-5.313a.904.904 0 01-.273-.664c0-.26.091-.481.273-.664l.899-.859a.904.904 0 01.664-.273c.26 0 .482.09.664.273L31 31.5l3.75-3.75a.904.904 0 01.664-.273c.26 0 .482.09.664.273l.899.86a.904.904 0 01.273.663c0 .26-.091.482-.273.665l-5.313 5.312a.904.904 0 01-.664.273.904.904 0 01-.664-.273z" fill="#333"/></svg>