<svg width="" height="" class="hidden">
  <symbol fill="none" xmlns="http://www.w3.org/2000/svg" viewBox="0 0 62 62" id="facebook">
    <circle cx="31" cy="31" r="30" stroke="#fff" stroke-opacity=".2"></circle>
    <path d="M28.852 41.984v-8.945h-3.008v-3.555h3.008V26.67c0-1.484.416-2.63 1.25-3.437.833-.833 1.94-1.25 3.32-1.25 1.12 0 2.031.052 2.734.156v3.164h-1.875c-.703 0-1.185.156-1.445.469-.208.26-.313.677-.313 1.25v2.46h3.32l-.468 3.556h-2.852v8.945h-3.671z" fill="#fff"></path>
  </symbol>
  <symbol fill="none" xmlns="http://www.w3.org/2000/svg" viewBox="0 0 62 62" id="instagram">
    <circle cx="31" cy="31" r="30" stroke="#fff" stroke-opacity=".2"></circle>
    <path d="M31 27.492c-.807 0-1.563.208-2.266.625a4.504 4.504 0 00-1.64 1.64 4.376 4.376 0 00-.586 2.227c0 .807.195 1.562.586 2.265a4.94 4.94 0 001.64 1.641 4.59 4.59 0 002.266.586c.807 0 1.55-.195 2.227-.586a4.504 4.504 0 001.64-1.64 4.368 4.368 0 00.625-2.266c0-.807-.208-1.55-.625-2.227a4.143 4.143 0 00-1.64-1.64A4.167 4.167 0 0031 27.492zm0 7.422a2.822 2.822 0 01-2.07-.86 2.822 2.822 0 01-.86-2.07c0-.807.287-1.498.86-2.07a2.822 2.822 0 012.07-.86c.807 0 1.497.287 2.07.86a2.82 2.82 0 01.86 2.07c0 .807-.287 1.497-.86 2.07a2.822 2.822 0 01-2.07.86zm5.742-7.618a1.172 1.172 0 01-.351.743.892.892 0 01-.703.312c-.287 0-.534-.104-.743-.312a1.014 1.014 0 01-.312-.743c0-.286.104-.534.312-.742.209-.208.456-.312.742-.312.287 0 .534.104.743.312.208.209.312.456.312.742zm2.969 1.055c-.052-.755-.17-1.406-.352-1.953a4.275 4.275 0 00-1.093-1.68 4.274 4.274 0 00-1.68-1.093c-.547-.183-1.198-.287-1.953-.313-.73-.052-1.94-.078-3.633-.078s-2.917.026-3.672.078c-.729.026-1.367.13-1.914.313a4.614 4.614 0 00-1.719 1.093 4.494 4.494 0 00-1.054 1.68c-.183.547-.3 1.198-.352 1.953-.026.73-.039 1.94-.039 3.633s.013 2.917.04 3.672c.051.729.168 1.367.35 1.914a4.87 4.87 0 001.055 1.719 4.432 4.432 0 001.72 1.015c.546.209 1.184.326 1.913.352.755.052 1.98.078 3.672.078 1.693 0 2.904-.026 3.633-.078.755-.026 1.406-.13 1.953-.313a4.493 4.493 0 001.68-1.054 4.614 4.614 0 001.093-1.72c.183-.546.287-1.184.313-1.913.052-.755.078-1.98.078-3.672 0-1.693-.013-2.904-.04-3.633zm-1.875 8.79c-.313.78-.872 1.34-1.68 1.679-.416.156-1.12.26-2.11.312-.546.026-1.353.04-2.421.04h-1.25a56.88 56.88 0 01-2.422-.04c-.963-.052-1.666-.156-2.11-.312-.78-.313-1.34-.873-1.679-1.68-.156-.443-.26-1.146-.312-2.11-.026-.572-.04-1.38-.04-2.421v-1.25c0-1.042.014-1.85.04-2.422.052-.99.156-1.693.312-2.11a2.82 2.82 0 011.68-1.68c.442-.155 1.146-.26 2.11-.312.572-.026 1.38-.039 2.421-.039h1.25c1.042 0 1.849.013 2.422.04.99.052 1.693.156 2.11.312a2.82 2.82 0 011.679 1.68c.156.416.26 1.12.312 2.109.026.547.04 1.354.04 2.422v1.25c0 1.042-.014 1.849-.04 2.422-.052.963-.156 1.666-.312 2.11z" fill="#fff"></path>
  </symbol>
  <symbol fill="none" xmlns="http://www.w3.org/2000/svg" viewBox="0 0 62 62" id="twitter">
    <circle cx="31" cy="31" r="30" stroke="#fff" stroke-opacity=".2"></circle>
    <path d="M38.93 27.921c.026.105.039.274.039.508 0 1.875-.456 3.685-1.367 5.43-.938 1.849-2.253 3.32-3.946 4.414-1.849 1.224-3.971 1.836-6.367 1.836-2.292 0-4.388-.612-6.289-1.836.287.026.612.039.977.039 1.9 0 3.606-.586 5.117-1.758-.912 0-1.719-.26-2.422-.781a4.236 4.236 0 01-1.406-2.031c.26.026.507.039.742.039.364 0 .729-.04 1.094-.117a4.133 4.133 0 01-2.344-1.446 3.933 3.933 0 01-.938-2.578v-.078c.573.339 1.185.52 1.836.547a4.551 4.551 0 01-1.328-1.485 3.903 3.903 0 01-.508-1.953c0-.729.196-1.419.586-2.07a11.374 11.374 0 008.438 4.297 5.692 5.692 0 01-.078-.938c0-.729.182-1.406.547-2.03a3.975 3.975 0 011.484-1.524 3.961 3.961 0 012.031-.547c.6 0 1.146.117 1.64.351.522.235.977.547 1.368.938a8.344 8.344 0 002.617-.977c-.312.964-.911 1.72-1.797 2.266A8.81 8.81 0 0041 25.773a9.015 9.015 0 01-2.07 2.148z" fill="#fff"></path>
  </symbol>
  <symbol xmlns="http://www.w3.org/2000/svg" viewBox="0 0 477.867 477.867" id="email">
    <path d="M460.8 68.267H17.067l221.867 182.75L463.309 68.779c-.821-.24-1.66-.411-2.509-.512z"></path>
    <path d="M249.702 286.31a17.065 17.065 0 01-21.623 0L0 98.406v294.127c0 9.426 7.641 17.067 17.067 17.067H460.8c9.426 0 17.067-7.641 17.067-17.067V100.932L249.702 286.31z"></path>
  </symbol>
  <symbol xmlns="http://www.w3.org/2000/svg" viewBox="0 0 512 512" id="location">
    <path d="M256 0C161.896 0 85.333 76.563 85.333 170.667c0 28.25 7.063 56.26 20.49 81.104L246.667 506.5c1.875 3.396 5.448 5.5 9.333 5.5s7.458-2.104 9.333-5.5l140.896-254.813c13.375-24.76 20.438-52.771 20.438-81.021C426.667 76.563 350.104 0 256 0zm0 256c-47.052 0-85.333-38.281-85.333-85.333S208.948 85.334 256 85.334s85.333 38.281 85.333 85.333S303.052 256 256 256z"></path>
  </symbol>
  <symbol xmlns="http://www.w3.org/2000/svg" viewBox="0 0 405.333 405.333" id="phone">
    <path d="M373.333 266.88c-25.003 0-49.493-3.904-72.704-11.563-11.328-3.904-24.192-.896-31.637 6.699l-46.016 34.752c-52.8-28.181-86.592-61.952-114.389-114.368l33.813-44.928c8.512-8.512 11.563-20.971 7.915-32.64-7.723-23.36-11.648-47.872-11.648-72.832 0-17.643-14.357-32-32-32H32C14.357 0 0 14.357 0 32c0 205.845 167.488 373.333 373.333 373.333 17.643 0 32-14.357 32-32V298.88c0-17.643-14.357-32-32-32z"></path>
  </symbol>
</svg>